<svg width="184" height="48" viewBox="0 0 184 48" fill="none" xmlns="http://www.w3.org/2000/svg">
<path d="M6.38908 13.1646C9.91767 13.1646 12.7782 10.2176 12.7782 6.5823C12.7782 2.947 9.91767 0 6.38908 0C2.86049 0 0 2.947 0 6.5823C0 10.2176 2.86049 13.1646 6.38908 13.1646Z" fill="#56A7C0"/>
<path d="M40.1313 48C43.6599 48 46.5203 45.053 46.5203 41.4177C46.5203 37.7824 43.6599 34.8354 40.1313 34.8354C36.6027 34.8354 33.7422 37.7824 33.7422 41.4177C33.7422 45.053 36.6027 48 40.1313 48Z" fill="#56A7C0"/>
<path d="M6.38908 48C9.91767 48 12.7782 45.053 12.7782 41.4177C12.7782 37.7824 9.91767 34.8354 6.38908 34.8354C2.86049 34.8354 0 37.7824 0 41.4177C0 45.053 2.86049 48 6.38908 48Z" fill="#E3061E"/>
<path d="M40.1313 13.1646C43.6599 13.1646 46.5203 10.2176 46.5203 6.5823C46.5203 2.947 43.6599 0 40.1313 0C36.6027 0 33.7422 2.947 33.7422 6.5823C33.7422 10.2176 36.6027 13.1646 40.1313 13.1646Z" fill="#E3061E"/>
<path d="M40.8602 19.5364C39.4808 19.4394 38.23 20.0147 37.3852 20.9767C36.2034 22.3227 34.556 23.1344 32.7946 23.1344H32.7906C31.1791 23.1344 29.6326 22.4744 28.4919 21.3006L25.7888 18.5157C24.6481 17.3405 24.0075 15.7472 24.0075 14.0856V14.0774C24.0075 12.2627 24.7953 10.5655 26.1005 9.34802C27.0329 8.47758 27.5913 7.18899 27.4971 5.76786C27.3526 3.59244 25.6416 1.82969 23.53 1.67938C21.0272 1.50174 18.9434 3.53915 18.9434 6.07942C18.9434 7.38167 19.4912 8.55273 20.3627 9.36032C21.6452 10.5491 22.3787 12.2422 22.3787 14.02V14.1512C22.3787 15.8128 21.7381 17.4075 20.5974 18.5813L17.958 21.3006C16.8186 22.4744 15.2721 23.1344 13.6592 23.1344H13.6552C11.8938 23.1344 10.2465 22.3227 9.06472 20.9767C8.21982 20.0147 6.96907 19.438 5.58965 19.5364C3.47809 19.6854 1.76576 21.4481 1.61986 23.6236C1.44743 26.2021 3.42503 28.3488 5.89074 28.3488C7.13088 28.3488 8.24768 27.8063 9.0289 26.9386C10.2306 25.6049 11.8938 24.8138 13.6592 24.8138C15.3119 24.8138 16.8969 25.4902 18.0654 26.694L20.5709 29.2753C21.7288 30.4682 22.3787 32.0861 22.3787 33.7723V33.812C22.3787 35.6157 21.6108 37.3074 20.3321 38.5413C19.4249 39.4172 18.8877 40.6963 18.9899 42.1024C19.1477 44.2655 20.8547 46.0118 22.9557 46.1608C25.4572 46.3384 27.5409 44.2996 27.5409 41.7607C27.5409 40.4284 26.9666 39.2328 26.0594 38.4252C24.7489 37.2568 24.0062 35.5529 24.0062 33.7669C24.0062 32.1257 24.6388 30.5516 25.7649 29.3914L28.3818 26.6954C29.5504 25.4915 31.1353 24.8151 32.788 24.8151C34.5547 24.8151 36.2166 25.6063 37.4183 26.94C38.1995 27.8077 39.3163 28.3502 40.5565 28.3502C43.0222 28.3502 45.0011 26.2035 44.8274 23.6249C44.6815 21.4495 42.9691 19.6867 40.8576 19.5378L40.8602 19.5364Z" fill="#006480"/>
<path d="M97.7819 34.4802C97.6134 34.5717 97.3919 34.5594 97.2328 34.3968L93.8373 30.997L65.0407 1.49217C62.2076 -1.41158 57.3783 0.319739 56.8928 4.40686C56.8491 4.77034 56.8252 5.10376 56.8252 5.39755V43.7408C56.8252 45.9312 58.5495 47.7076 60.6756 47.7076C62.8018 47.7076 64.526 45.9312 64.526 43.7408V14.5748C64.526 13.7071 65.5434 13.2712 66.1402 13.8833L93.8359 42.2376L97.9039 46.4027C98.7276 47.2389 99.8377 47.7063 100.994 47.7063H101.303C101.347 47.7063 101.391 47.7035 101.435 47.7022V47.7063C103.871 47.7063 105.845 45.673 105.845 43.1641L97.7806 34.4802H97.7819Z" fill="#56A7C0"/>
<path d="M135.824 0.159817L132.299 0.140686C132.299 0.140686 132.313 0.154351 132.338 0.180314H105.847C99.8275 0.180314 98.1457 4.45464 98.1457 7.90088V33.9335C98.1457 34.4432 97.7822 34.4801 97.7822 34.4801C97.7822 34.4801 105.847 45.6729 105.847 43.1641V10.3961C105.847 9.14574 106.831 8.13182 108.044 8.13182H113.161C115.483 8.13182 117.363 10.0695 117.363 12.4608V43.712C117.363 45.9189 119.099 47.7076 121.242 47.7076C123.384 47.7076 125.12 45.9189 125.12 43.712V12.4608C125.12 10.0695 127.001 8.13182 129.322 8.13182H135.309C138.153 8.13182 140.885 9.24003 142.965 11.2214V2.63723L135.825 0.159817H135.824Z" fill="#006480"/>
<path d="M166.637 24.0171L182.836 7.32833C184.388 5.72956 184.388 3.13736 182.836 1.53859C181.284 -0.0601854 178.768 -0.0601854 177.216 1.53859L161.018 18.2273L148.158 4.97937C145.187 1.91847 141.166 0.189879 136.965 0.166649L132.298 0.140686C132.298 0.140686 137.647 5.72956 139.199 7.32833L155.398 24.0171L139.199 40.7058C137.647 42.3046 137.647 44.8968 139.199 46.4955C140.751 48.0943 143.267 48.0943 144.819 46.4955L161.018 29.8068L177.216 46.4955C178.768 48.0943 181.284 48.0943 182.836 46.4955C184.388 44.8968 184.388 42.3046 182.836 40.7058L166.637 24.0171Z" fill="#56A7C0"/>
</svg>
